  0
SECTION
  2
HEADER
  9
$ACADVER
  1
AC1006
  9
$EXTMIN
 10
5.998283
 20
-25.001500
  9
$EXTMAX
 10
14.001713
 20
25.373059
  9
$LTSCALE
 40
0.000394
  9
$PDMODE
 70
    35
  9
$PDSIZE
 40
0.000315
  0
ENDSEC
  0
SECTION
  2
TABLES
  0
TABLE
  2
LTYPE
 70
     9
  0
LTYPE
  2
CONTINUOUS
 70
    64
  3
Solid line
 72
    65
 73
     0
 40
0.000000
  0
LTYPE
  2
DASHED
 70
    64
  3
__ __ __ __ __ __ __ __ __ __ __ __ __ __ __
 72
    65
 73
     2
 40
0.000003
 49
0.000002
 49
-0.000001
  0
LTYPE
  2
HIDDEN
 70
    64
  3
 _ _ _ _ _ _ _ _ _ _ _ _ _ _ _ _ _ _ _ _ _ _
 72
    65
 73
     2
 40
0.000001
 49
0.000001
 49
-0.000000
  0
LTYPE
  2
CENTER
 70
    64
  3
____ _ ____ _ ____ _ ____ _ ____ _ ____ _ ____
 72
    65
 73
     4
 40
0.000008
 49
0.000005
 49
-0.000001
 49
0.000001
 49
-0.000001
  0
LTYPE
  2
PHANTOM
 70
    64
  3
_____ _ _ _____ _ _ _____ _ _ _____ _ _ ____
 72
    65
 73
     6
 40
0.000010
 49
0.000005
 49
-0.000001
 49
0.000001
 49
-0.000001
 49
0.000001
 49
-0.000001
  0
LTYPE
  2
DOT
 70
    64
  3
...............................................
 72
    65
 73
     2
 40
0.000001
 49
0.000000
 49
-0.000001
  0
LTYPE
  2
DASHDOT
 70
    64
  3
__ . __ . __ . __ . __ . __ . __ . __ . __ . __
 72
    65
 73
     4
 40
0.000004
 49
0.000002
 49
-0.000001
 49
0.000000
 49
-0.000001
  0
LTYPE
  2
BORDER
 70
    64
  3
__ __ . __ __ . __ __ . __ __ . __ __ . __ __
 72
    65
 73
     6
 40
0.000007
 49
0.000002
 49
-0.000001
 49
0.000002
 49
-0.000001
 49
0.000000
 49
-0.000001
  0
LTYPE
  2
DIVIDE
 70
    64
  3
__ . . __ . . __ . . __ . . __ . . __ . . __
 72
    65
 73
     6
 40
0.000005
 49
0.000002
 49
-0.000001
 49
0.000000
 49
-0.000001
 49
0.000000
 49
-0.000001
  0
LTYPE
  2
DOTDOT
 70
    64
  3
 . .  . .  . .  . .  . .  . . 
 72
    65
 73
     5
 40
0.000002
 49
-0.000001
 49
0.000000
 49
-0.000001
 49
0.000000
 49
-0.000001
  0
ENDTAB
  0
TABLE
  2
STYLE
 70
     0
  0
ENDTAB
  0
TABLE
  2
LAYER
 70
     3
  0
LAYER
  2
FOREGROUND
 70
    64
 62
     7
  6
CONTINUOUS
  0
LAYER
  2
BACKGROUND
 70
    65
 62
    -7
  6
CONTINUOUS
  0
LAYER
  2
LAYER_1
 70
    64
 62
     7
  6
CONTINUOUS
  0
ENDTAB
  0
ENDSEC
  0
SECTION
  2
ENTITIES
  0
POLYLINE
  8
LAYER_1
 62
    39
  6
CONTINUOUS
 66
     1
 40
0.003000
 41
0.003000
 70
     1
  0
VERTEX
  8
LAYER_1
 62
    39
  6
CONTINUOUS
 10
7.000000
 20
4.000000
  0
VERTEX
  8
LAYER_1
 62
    39
  6
CONTINUOUS
 10
8.500000
 20
-10.000000
  0
VERTEX
  8
LAYER_1
 62
    39
  6
CONTINUOUS
 10
9.445953
 20
-24.189303
  0
VERTEX
  8
LAYER_1
 62
    39
  6
CONTINUOUS
 10
9.477927
 20
-24.195766
  0
VERTEX
  8
LAYER_1
 62
    39
  6
CONTINUOUS
 10
9.501791
 20
-24.216660
  0
VERTEX
  8
LAYER_1
 62
    39
  6
CONTINUOUS
 10
9.512413
 20
-24.247500
  0
VERTEX
  8
LAYER_1
 62
    39
  6
CONTINUOUS
 10
9.505986
 20
-24.279483
  0
VERTEX
  8
LAYER_1
 62
    39
  6
CONTINUOUS
 10
9.485107
 20
-24.303364
  0
VERTEX
  8
LAYER_1
 62
    39
  6
CONTINUOUS
 10
9.454268
 20
-24.314020
  0
VERTEX
  8
LAYER_1
 62
    39
  6
CONTINUOUS
 10
9.462583
 20
-24.438744
  0
VERTEX
  8
LAYER_1
 62
    39
  6
CONTINUOUS
 10
9.494570
 20
-24.445202
  0
VERTEX
  8
LAYER_1
 62
    39
  6
CONTINUOUS
 10
9.518443
 20
-24.466098
  0
VERTEX
  8
LAYER_1
 62
    39
  6
CONTINUOUS
 10
9.529071
 20
-24.496945
  0
VERTEX
  8
LAYER_1
 62
    39
  6
CONTINUOUS
 10
9.522637
 20
-24.528937
  0
VERTEX
  8
LAYER_1
 62
    39
  6
CONTINUOUS
 10
9.501749
 20
-24.552823
  0
VERTEX
  8
LAYER_1
 62
    39
  6
CONTINUOUS
 10
9.470898
 20
-24.563469
  0
VERTEX
  8
LAYER_1
 62
    39
  6
CONTINUOUS
 10
9.479213
 20
-24.688193
  0
VERTEX
  8
LAYER_1
 62
    39
  6
CONTINUOUS
 10
9.511211
 20
-24.694641
  0
VERTEX
  8
LAYER_1
 62
    39
  6
CONTINUOUS
 10
9.535094
 20
-24.715537
  0
VERTEX
  8
LAYER_1
 62
    39
  6
CONTINUOUS
 10
9.545724
 20
-24.746390
  0
VERTEX
  8
LAYER_1
 62
    39
  6
CONTINUOUS
 10
9.539290
 20
-24.778388
  0
VERTEX
  8
LAYER_1
 62
    39
  6
CONTINUOUS
 10
9.518393
 20
-24.802276
  0
VERTEX
  8
LAYER_1
 62
    39
  6
CONTINUOUS
 10
9.487528
 20
-24.812917
  0
VERTEX
  8
LAYER_1
 62
    39
  6
CONTINUOUS
 10
9.500000
 20
-25.000000
  0
VERTEX
  8
LAYER_1
 62
    39
  6
CONTINUOUS
 10
9.656122
 20
-25.000000
  0
VERTEX
  8
LAYER_1
 62
    39
  6
CONTINUOUS
 10
9.664678
 20
-24.968498
  0
VERTEX
  8
LAYER_1
 62
    39
  6
CONTINUOUS
 10
9.687128
 20
-24.946055
  0
VERTEX
  8
LAYER_1
 62
    39
  6
CONTINUOUS
 10
9.718642
 20
-24.937500
  0
VERTEX
  8
LAYER_1
 62
    39
  6
CONTINUOUS
 10
9.750153
 20
-24.946055
  0
VERTEX
  8
LAYER_1
 62
    39
  6
CONTINUOUS
 10
9.772601
 20
-24.968498
  0
VERTEX
  8
LAYER_1
 62
    39
  6
CONTINUOUS
 10
9.781157
 20
-25.000000
  0
VERTEX
  8
LAYER_1
 62
    39
  6
CONTINUOUS
 10
9.937449
 20
-25.000000
  0
VERTEX
  8
LAYER_1
 62
    39
  6
CONTINUOUS
 10
9.946005
 20
-24.968498
  0
VERTEX
  8
LAYER_1
 62
    39
  6
CONTINUOUS
 10
9.968453
 20
-24.946055
  0
VERTEX
  8
LAYER_1
 62
    39
  6
CONTINUOUS
 10
9.999965
 20
-24.937500
  0
VERTEX
  8
LAYER_1
 62
    39
  6
CONTINUOUS
 10
10.031476
 20
-24.946055
  0
VERTEX
  8
LAYER_1
 62
    39
  6
CONTINUOUS
 10
10.053924
 20
-24.968498
  0
VERTEX
  8
LAYER_1
 62
    39
  6
CONTINUOUS
 10
10.062480
 20
-25.000000
  0
VERTEX
  8
LAYER_1
 62
    39
  6
CONTINUOUS
 10
10.218768
 20
-25.000000
  0
VERTEX
  8
LAYER_1
 62
    39
  6
CONTINUOUS
 10
10.227324
 20
-24.968498
  0
VERTEX
  8
LAYER_1
 62
    39
  6
CONTINUOUS
 10
10.249772
 20
-24.946055
  0
VERTEX
  8
LAYER_1
 62
    39
  6
CONTINUOUS
 10
10.281283
 20
-24.937500
  0
VERTEX
  8
LAYER_1
 62
    39
  6
CONTINUOUS
 10
10.312795
 20
-24.946055
  0
VERTEX
  8
LAYER_1
 62
    39
  6
CONTINUOUS
 10
10.335243
 20
-24.968498
  0
VERTEX
  8
LAYER_1
 62
    39
  6
CONTINUOUS
 10
10.343799
 20
-25.000000
  0
VERTEX
  8
LAYER_1
 62
    39
  6
CONTINUOUS
 10
10.500000
 20
-25.000000
  0
VERTEX
  8
LAYER_1
 62
    39
  6
CONTINUOUS
 10
10.512472
 20
-24.812913
  0
VERTEX
  8
LAYER_1
 62
    39
  6
CONTINUOUS
 10
10.481651
 20
-24.802250
  0
VERTEX
  8
LAYER_1
 62
    39
  6
CONTINUOUS
 10
10.460789
 20
-24.778370
  0
VERTEX
  8
LAYER_1
 62
    39
  6
CONTINUOUS
 10
10.454366
 20
-24.746398
  0
VERTEX
  8
LAYER_1
 62
    39
  6
CONTINUOUS
 10
10.464980
 20
-24.715565
  0
VERTEX
  8
LAYER_1
 62
    39
  6
CONTINUOUS
 10
10.488830
 20
-24.694669
  0
VERTEX
  8
LAYER_1
 62
    39
  6
CONTINUOUS
 10
10.520787
 20
-24.688193
  0
VERTEX
  8
LAYER_1
 62
    39
  6
CONTINUOUS
 10
10.529102
 20
-24.563465
  0
VERTEX
  8
LAYER_1
 62
    39
  6
CONTINUOUS
 10
10.498295
 20
-24.552796
  0
VERTEX
  8
LAYER_1
 62
    39
  6
CONTINUOUS
 10
10.477441
 20
-24.528918
  0
VERTEX
  8
LAYER_1
 62
    39
  6
CONTINUOUS
 10
10.471020
 20
-24.496953
  0
VERTEX
  8
LAYER_1
 62
    39
  6
CONTINUOUS
 10
10.481631
 20
-24.466127
  0
VERTEX
  8
LAYER_1
 62
    39
  6
CONTINUOUS
 10
10.505470
 20
-24.445233
  0
VERTEX
  8
LAYER_1
 62
    39
  6
CONTINUOUS
 10
10.537417
 20
-24.438748
  0
VERTEX
  8
LAYER_1
 62
    39
  6
CONTINUOUS
 10
10.545732
 20
-24.314020
  0
VERTEX
  8
LAYER_1
 62
    39
  6
CONTINUOUS
 10
10.514936
 20
-24.303344
  0
VERTEX
  8
LAYER_1
 62
    39
  6
CONTINUOUS
 10
10.494092
 20
-24.279467
  0
VERTEX
  8
LAYER_1
 62
    39
  6
CONTINUOUS
 10
10.487677
 20
-24.247508
  0
VERTEX
  8
LAYER_1
 62
    39
  6
CONTINUOUS
 10
10.498282
 20
-24.216688
  0
VERTEX
  8
LAYER_1
 62
    39
  6
CONTINUOUS
 10
10.522111
 20
-24.195794
  0
VERTEX
  8
LAYER_1
 62
    39
  6
CONTINUOUS
 10
10.554047
 20
-24.189299
  0
VERTEX
  8
LAYER_1
 62
    39
  6
CONTINUOUS
 10
11.500000
 20
-10.000000
  0
VERTEX
  8
LAYER_1
 62
    39
  6
CONTINUOUS
 10
13.000000
 20
4.000000
  0
VERTEX
  8
LAYER_1
 62
    39
  6
CONTINUOUS
 10
13.000000
 20
23.653665
  0
VERTEX
  8
LAYER_1
 62
    39
  6
CONTINUOUS
 10
13.047740
 20
23.667678
  0
VERTEX
  8
LAYER_1
 62
    39
  6
CONTINUOUS
 10
13.095202
 20
23.681903
  0
VERTEX
  8
LAYER_1
 62
    39
  6
CONTINUOUS
 10
13.142378
 20
23.696339
  0
VERTEX
  8
LAYER_1
 62
    39
  6
CONTINUOUS
 10
13.293335
 20
23.744576
  0
VERTEX
  8
LAYER_1
 62
    39
  6
CONTINUOUS
 10
13.441207
 20
23.794979
  0
VERTEX
  8
LAYER_1
 62
    39
  6
CONTINUOUS
 10
13.585902
 20
23.847500
  0
VERTEX
  8
LAYER_1
 62
    39
  6
CONTINUOUS
 10
13.887667
 20
23.960501
  0
VERTEX
  8
LAYER_1
 62
    39
  6
CONTINUOUS
 10
13.989842
 20
24.085398
  0
VERTEX
  8
LAYER_1
 62
    39
  6
CONTINUOUS
 10
13.999996
 20
24.392307
  0
VERTEX
  8
LAYER_1
 62
    39
  6
CONTINUOUS
 10
13.999996
 20
24.517300
  0
VERTEX
  8
LAYER_1
 62
    39
  6
CONTINUOUS
 10
13.999996
 20
24.642296
  0
VERTEX
  8
LAYER_1
 62
    39
  6
CONTINUOUS
 10
13.999996
 20
24.767291
  0
VERTEX
  8
LAYER_1
 62
    39
  6
CONTINUOUS
 10
13.999996
 20
25.142276
  0
VERTEX
  8
LAYER_1
 62
    39
  6
CONTINUOUS
 10
13.941535
 20
25.327277
  0
VERTEX
  8
LAYER_1
 62
    39
  6
CONTINUOUS
 10
13.791054
 20
25.371532
  0
VERTEX
  8
LAYER_1
 62
    39
  6
CONTINUOUS
 10
13.585906
 20
25.347441
  0
VERTEX
  8
LAYER_1
 62
    39
  6
CONTINUOUS
 10
13.407008
 20
25.303558
  0
VERTEX
  8
LAYER_1
 62
    39
  6
CONTINUOUS
 10
13.276237
 20
25.248839
  0
VERTEX
  8
LAYER_1
 62
    39
  6
CONTINUOUS
 10
13.142382
 20
25.196287
  0
VERTEX
  8
LAYER_1
 62
    39
  6
CONTINUOUS
 10
12.988425
 20
25.150267
  0
VERTEX
  8
LAYER_1
 62
    39
  6
CONTINUOUS
 10
12.831556
 20
25.106497
  0
VERTEX
  8
LAYER_1
 62
    39
  6
CONTINUOUS
 10
12.671870
 20
25.065028
  0
VERTEX
  8
LAYER_1
 62
    39
  6
CONTINUOUS
 10
12.509459
 20
25.025905
  0
VERTEX
  8
LAYER_1
 62
    39
  6
CONTINUOUS
 10
12.344410
 20
24.989176
  0
VERTEX
  8
LAYER_1
 62
    39
  6
CONTINUOUS
 10
12.176815
 20
24.954886
  0
VERTEX
  8
LAYER_1
 62
    39
  6
CONTINUOUS
 10
12.006768
 20
24.923079
  0
VERTEX
  8
LAYER_1
 62
    39
  6
CONTINUOUS
 10
11.834350
 20
24.893798
  0
VERTEX
  8
LAYER_1
 62
    39
  6
CONTINUOUS
 10
11.659657
 20
24.867091
  0
VERTEX
  8
LAYER_1
 62
    39
  6
CONTINUOUS
 10
11.482781
 20
24.843001
  0
VERTEX
  8
LAYER_1
 62
    39
  6
CONTINUOUS
 10
11.303810
 20
24.821575
  0
VERTEX
  8
LAYER_1
 62
    39
  6
CONTINUOUS
 10
11.122839
 20
24.802858
  0
VERTEX
  8
LAYER_1
 62
    39
  6
CONTINUOUS
 10
10.939954
 20
24.786899
  0
VERTEX
  8
LAYER_1
 62
    39
  6
CONTINUOUS
 10
10.755245
 20
24.773738
  0
VERTEX
  8
LAYER_1
 62
    39
  6
CONTINUOUS
 10
10.568807
 20
24.763421
  0
VERTEX
  8
LAYER_1
 62
    39
  6
CONTINUOUS
 10
10.380725
 20
24.755996
  0
VERTEX
  8
LAYER_1
 62
    39
  6
CONTINUOUS
 10
10.191092
 20
24.751507
  0
VERTEX
  8
LAYER_1
 62
    39
  6
CONTINUOUS
 10
10.000000
 20
24.750000
  0
VERTEX
  8
LAYER_1
 62
    39
  6
CONTINUOUS
 10
9.808908
 20
24.751507
  0
VERTEX
  8
LAYER_1
 62
    39
  6
CONTINUOUS
 10
9.619274
 20
24.755996
  0
VERTEX
  8
LAYER_1
 62
    39
  6
CONTINUOUS
 10
9.431189
 20
24.763421
  0
VERTEX
  8
LAYER_1
 62
    39
  6
CONTINUOUS
 10
9.244751
 20
24.773737
  0
VERTEX
  8
LAYER_1
 62
    39
  6
CONTINUOUS
 10
9.060042
 20
24.786897
  0
VERTEX
  8
LAYER_1
 62
    39
  6
CONTINUOUS
 10
8.877157
 20
24.802858
  0
VERTEX
  8
LAYER_1
 62
    39
  6
CONTINUOUS
 10
8.696186
 20
24.821572
  0
VERTEX
  8
LAYER_1
 62
    39
  6
CONTINUOUS
 10
8.517216
 20
24.842999
  0
VERTEX
  8
LAYER_1
 62
    39
  6
CONTINUOUS
 10
8.340339
 20
24.867091
  0
VERTEX
  8
LAYER_1
 62
    39
  6
CONTINUOUS
 10
8.165647
 20
24.893798
  0
VERTEX
  8
LAYER_1
 62
    39
  6
CONTINUOUS
 10
7.993232
 20
24.923079
  0
VERTEX
  8
LAYER_1
 62
    39
  6
CONTINUOUS
 10
7.823181
 20
24.954886
  0
VERTEX
  8
LAYER_1
 62
    39
  6
CONTINUOUS
 10
7.655590
 20
24.989177
  0
VERTEX
  8
LAYER_1
 62
    39
  6
CONTINUOUS
 10
7.490541
 20
25.025908
  0
VERTEX
  8
LAYER_1
 62
    39
  6
CONTINUOUS
 10
7.328126
 20
25.065031
  0
VERTEX
  8
LAYER_1
 62
    39
  6
CONTINUOUS
 10
7.168442
 20
25.106499
  0
VERTEX
  8
LAYER_1
 62
    39
  6
CONTINUOUS
 10
7.011573
 20
25.150266
  0
VERTEX
  8
LAYER_1
 62
    39
  6
CONTINUOUS
 10
6.857614
 20
25.196287
  0
VERTEX
  8
LAYER_1
 62
    39
  6
CONTINUOUS
 10
6.723758
 20
25.248836
  0
VERTEX
  8
LAYER_1
 62
    39
  6
CONTINUOUS
 10
6.592986
 20
25.303553
  0
VERTEX
  8
LAYER_1
 62
    39
  6
CONTINUOUS
 10
6.414091
 20
25.347437
  0
VERTEX
  8
LAYER_1
 62
    39
  6
CONTINUOUS
 10
6.208944
 20
25.371532
  0
VERTEX
  8
LAYER_1
 62
    39
  6
CONTINUOUS
 10
6.058462
 20
25.327278
  0
VERTEX
  8
LAYER_1
 62
    39
  6
CONTINUOUS
 10
6.000000
 20
25.142268
  0
VERTEX
  8
LAYER_1
 62
    39
  6
CONTINUOUS
 10
6.000000
 20
24.767283
  0
VERTEX
  8
LAYER_1
 62
    39
  6
CONTINUOUS
 10
6.000000
 20
24.642288
  0
VERTEX
  8
LAYER_1
 62
    39
  6
CONTINUOUS
 10
6.000000
 20
24.517294
  0
VERTEX
  8
LAYER_1
 62
    39
  6
CONTINUOUS
 10
6.000000
 20
24.392299
  0
VERTEX
  8
LAYER_1
 62
    39
  6
CONTINUOUS
 10
6.010149
 20
24.085397
  0
VERTEX
  8
LAYER_1
 62
    39
  6
CONTINUOUS
 10
6.112318
 20
23.960503
  0
VERTEX
  8
LAYER_1
 62
    39
  6
CONTINUOUS
 10
6.414094
 20
23.847496
  0
VERTEX
  8
LAYER_1
 62
    39
  6
CONTINUOUS
 10
6.558788
 20
23.794974
  0
VERTEX
  8
LAYER_1
 62
    39
  6
CONTINUOUS
 10
6.706659
 20
23.744571
  0
VERTEX
  8
LAYER_1
 62
    39
  6
CONTINUOUS
 10
6.857618
 20
23.696335
  0
VERTEX
  8
LAYER_1
 62
    39
  6
CONTINUOUS
 10
6.904796
 20
23.681896
  0
VERTEX
  8
LAYER_1
 62
    39
  6
CONTINUOUS
 10
6.952258
 20
23.667667
  0
VERTEX
  8
LAYER_1
 62
    39
  6
CONTINUOUS
 10
7.000000
 20
23.653654
  0
SEQEND
  8
0
  0
SOLID
  8
LAYER_1
 62
   252
 10
11.310469
 20
-2.435638
 11
10.305193
 21
-0.999957
 12
11.310469
 22
-2.435638
 13
11.673693
 23
0.954461
  0
POLYLINE
  8
LAYER_1
 62
    39
  6
CONTINUOUS
 66
     1
 40
0.003000
 41
0.003000
 70
     1
  0
VERTEX
  8
LAYER_1
 62
    39
  6
CONTINUOUS
 10
11.310469
 20
-2.435638
  0
VERTEX
  8
LAYER_1
 62
    39
  6
CONTINUOUS
 10
10.305193
 20
-0.999957
  0
VERTEX
  8
LAYER_1
 62
    39
  6
CONTINUOUS
 10
11.673693
 20
0.954461
  0
SEQEND
  8
0
  0
POLYLINE
  8
LAYER_1
 62
    39
  6
CONTINUOUS
 66
     1
 40
0.003000
 41
0.003000
 70
     1
  0
VERTEX
  8
LAYER_1
 62
    39
  6
CONTINUOUS
 10
11.783965
 20
1.983673
  0
VERTEX
  8
LAYER_1
 62
    39
  6
CONTINUOUS
 10
10.000000
 20
-0.564094
  0
VERTEX
  8
LAYER_1
 62
    39
  6
CONTINUOUS
 10
8.216035
 20
1.983673
  0
VERTEX
  8
LAYER_1
 62
    39
  6
CONTINUOUS
 10
8.000000
 20
4.000000
  0
VERTEX
  8
LAYER_1
 62
    39
  6
CONTINUOUS
 10
12.000000
 20
4.000000
  0
SEQEND
  8
0
  0
SOLID
  8
LAYER_1
 62
   252
 10
8.326307
 20
0.954461
 11
9.694807
 21
-0.999957
 12
8.326307
 22
0.954461
 13
8.689531
 23
-2.435638
  0
POLYLINE
  8
LAYER_1
 62
    39
  6
CONTINUOUS
 66
     1
 40
0.003000
 41
0.003000
 70
     1
  0
VERTEX
  8
LAYER_1
 62
    39
  6
CONTINUOUS
 10
8.326307
 20
0.954461
  0
VERTEX
  8
LAYER_1
 62
    39
  6
CONTINUOUS
 10
9.694807
 20
-0.999957
  0
VERTEX
  8
LAYER_1
 62
    39
  6
CONTINUOUS
 10
8.689531
 20
-2.435638
  0
SEQEND
  8
0
  0
POLYLINE
  8
LAYER_1
 62
    39
  6
CONTINUOUS
 66
     1
 40
0.003000
 41
0.003000
 70
     1
  0
VERTEX
  8
LAYER_1
 62
    39
  6
CONTINUOUS
 10
8.770535
 20
-3.191673
  0
VERTEX
  8
LAYER_1
 62
    39
  6
CONTINUOUS
 10
10.000000
 20
-1.435819
  0
VERTEX
  8
LAYER_1
 62
    39
  6
CONTINUOUS
 10
11.229465
 20
-3.191673
  0
VERTEX
  8
LAYER_1
 62
    39
  6
CONTINUOUS
 10
10.500000
 20
-10.000000
  0
VERTEX
  8
LAYER_1
 62
    39
  6
CONTINUOUS
 10
9.500000
 20
-10.000000
  0
SEQEND
  8
0
  0
SOLID
  8
LAYER_1
 62
   252
 10
12.000000
 20
11.790567
 11
10.305193
 21
14.211000
 12
12.000000
 22
11.790567
 13
12.000000
 23
16.631433
  0
POLYLINE
  8
LAYER_1
 62
    39
  6
CONTINUOUS
 66
     1
 40
0.003000
 41
0.003000
 70
     1
  0
VERTEX
  8
LAYER_1
 62
    39
  6
CONTINUOUS
 10
12.000000
 20
11.790567
  0
VERTEX
  8
LAYER_1
 62
    39
  6
CONTINUOUS
 10
10.305193
 20
14.211000
  0
VERTEX
  8
LAYER_1
 62
    39
  6
CONTINUOUS
 10
12.000000
 20
16.631433
  0
SEQEND
  8
0
  0
POLYLINE
  8
LAYER_1
 62
    39
  6
CONTINUOUS
 66
     1
 40
0.003000
 41
0.003000
 70
     1
  0
VERTEX
  8
LAYER_1
 62
    39
  6
CONTINUOUS
 10
12.000000
 20
17.503161
  0
VERTEX
  8
LAYER_1
 62
    39
  6
CONTINUOUS
 10
10.000000
 20
14.646862
  0
VERTEX
  8
LAYER_1
 62
    39
  6
CONTINUOUS
 10
8.000000
 20
17.503161
  0
VERTEX
  8
LAYER_1
 62
    39
  6
CONTINUOUS
 10
8.000000
 20
23.421882
  0
VERTEX
  8
LAYER_1
 62
    39
  6
CONTINUOUS
 10
8.112469
 20
23.402525
  0
VERTEX
  8
LAYER_1
 62
    39
  6
CONTINUOUS
 10
8.225924
 20
23.384264
  0
VERTEX
  8
LAYER_1
 62
    39
  6
CONTINUOUS
 10
8.340331
 20
23.367106
  0
VERTEX
  8
LAYER_1
 62
    39
  6
CONTINUOUS
 10
8.517208
 20
23.343013
  0
VERTEX
  8
LAYER_1
 62
    39
  6
CONTINUOUS
 10
8.696176
 20
23.321584
  0
VERTEX
  8
LAYER_1
 62
    39
  6
CONTINUOUS
 10
8.877146
 20
23.302866
  0
VERTEX
  8
LAYER_1
 62
    39
  6
CONTINUOUS
 10
9.060031
 20
23.286904
  0
VERTEX
  8
LAYER_1
 62
    39
  6
CONTINUOUS
 10
9.244743
 20
23.273742
  0
VERTEX
  8
LAYER_1
 62
    39
  6
CONTINUOUS
 10
9.431185
 20
23.263425
  0
VERTEX
  8
LAYER_1
 62
    39
  6
CONTINUOUS
 10
9.619270
 20
23.255997
  0
VERTEX
  8
LAYER_1
 62
    39
  6
CONTINUOUS
 10
9.808905
 20
23.251507
  0
VERTEX
  8
LAYER_1
 62
    39
  6
CONTINUOUS
 10
10.000000
 20
23.250000
  0
VERTEX
  8
LAYER_1
 62
    39
  6
CONTINUOUS
 10
10.191095
 20
23.251508
  0
VERTEX
  8
LAYER_1
 62
    39
  6
CONTINUOUS
 10
10.380729
 20
23.255999
  0
VERTEX
  8
LAYER_1
 62
    39
  6
CONTINUOUS
 10
10.568811
 20
23.263425
  0
VERTEX
  8
LAYER_1
 62
    39
  6
CONTINUOUS
 10
10.755254
 20
23.273742
  0
VERTEX
  8
LAYER_1
 62
    39
  6
CONTINUOUS
 10
10.939964
 20
23.286904
  0
VERTEX
  8
LAYER_1
 62
    39
  6
CONTINUOUS
 10
11.122850
 20
23.302866
  0
VERTEX
  8
LAYER_1
 62
    39
  6
CONTINUOUS
 10
11.303819
 20
23.321585
  0
VERTEX
  8
LAYER_1
 62
    39
  6
CONTINUOUS
 10
11.482787
 20
23.343016
  0
VERTEX
  8
LAYER_1
 62
    39
  6
CONTINUOUS
 10
11.659661
 20
23.367110
  0
VERTEX
  8
LAYER_1
 62
    39
  6
CONTINUOUS
 10
11.774077
 20
23.384269
  0
VERTEX
  8
LAYER_1
 62
    39
  6
CONTINUOUS
 10
11.887530
 20
23.402531
  0
VERTEX
  8
LAYER_1
 62
    39
  6
CONTINUOUS
 10
12.000000
 20
23.421890
  0
SEQEND
  8
0
  0
SOLID
  8
LAYER_1
 62
   252
 10
8.000000
 20
16.631433
 11
9.694807
 21
14.211000
 12
8.000000
 22
16.631433
 13
8.000000
 23
11.790567
  0
POLYLINE
  8
LAYER_1
 62
    39
  6
CONTINUOUS
 66
     1
 40
0.003000
 41
0.003000
 70
     1
  0
VERTEX
  8
LAYER_1
 62
    39
  6
CONTINUOUS
 10
8.000000
 20
16.631433
  0
VERTEX
  8
LAYER_1
 62
    39
  6
CONTINUOUS
 10
9.694807
 20
14.211000
  0
VERTEX
  8
LAYER_1
 62
    39
  6
CONTINUOUS
 10
8.000000
 20
11.790567
  0
SEQEND
  8
0
  0
POLYLINE
  8
LAYER_1
 62
    39
  6
CONTINUOUS
 66
     1
 40
0.003000
 41
0.003000
 70
     1
  0
VERTEX
  8
LAYER_1
 62
    39
  6
CONTINUOUS
 10
8.000000
 20
10.918846
  0
VERTEX
  8
LAYER_1
 62
    39
  6
CONTINUOUS
 10
10.000000
 20
13.775138
  0
VERTEX
  8
LAYER_1
 62
    39
  6
CONTINUOUS
 10
12.000000
 20
10.918846
  0
VERTEX
  8
LAYER_1
 62
    39
  6
CONTINUOUS
 10
12.000000
 20
5.000000
  0
VERTEX
  8
LAYER_1
 62
    39
  6
CONTINUOUS
 10
8.000000
 20
5.000000
  0
SEQEND
  8
0
  0
ENDSEC
  0
EOF
